<svg xmlns="http://www.w3.org/2000/svg" width="1160" height="540" viewBox="0 0 1160 540">
<rect width="100%" height="100%" fill="#ffffff"/>
<text x="580.0" y="28" text-anchor="middle" font-family="Arial, sans-serif" font-size="14" fill="#111827">Stability certificate vs K</text>
<line x1="72" y1="70" x2="72" y2="470" stroke="#111827"/>
<line x1="72" y1="470" x2="800" y2="470" stroke="#111827"/>
<text x="580.0" y="522" text-anchor="middle" font-family="Arial, sans-serif" font-size="13" fill="#374151">K</text>
<text x="18" y="270.0" transform="rotate(-90 18 270.0)" text-anchor="middle" font-family="Arial, sans-serif" font-size="13" fill="#374151">Mean certified budget B*</text>
<line x1="72" y1="470.0" x2="800" y2="470.0" stroke="#e5e7eb"/>
<text x="64" y="474.0" text-anchor="end" font-family="Arial, sans-serif" font-size="11" fill="#374151">0.0</text>
<line x1="72" y1="370.0" x2="800" y2="370.0" stroke="#e5e7eb"/>
<text x="64" y="374.0" text-anchor="end" font-family="Arial, sans-serif" font-size="11" fill="#374151">1.2</text>
<line x1="72" y1="270.0" x2="800" y2="270.0" stroke="#e5e7eb"/>
<text x="64" y="274.0" text-anchor="end" font-family="Arial, sans-serif" font-size="11" fill="#374151">2.3</text>
<line x1="72" y1="170.0" x2="800" y2="170.0" stroke="#e5e7eb"/>
<text x="64" y="174.0" text-anchor="end" font-family="Arial, sans-serif" font-size="11" fill="#374151">3.5</text>
<line x1="72" y1="70.0" x2="800" y2="70.0" stroke="#e5e7eb"/>
<text x="64" y="74.0" text-anchor="end" font-family="Arial, sans-serif" font-size="11" fill="#374151">4.7</text>
<text x="72.0" y="488" text-anchor="middle" font-family="Arial, sans-serif" font-size="11" fill="#374151">6</text>
<text x="254.0" y="488" text-anchor="middle" font-family="Arial, sans-serif" font-size="11" fill="#374151">7</text>
<text x="436.0" y="488" text-anchor="middle" font-family="Arial, sans-serif" font-size="11" fill="#374151">8</text>
<text x="618.0" y="488" text-anchor="middle" font-family="Arial, sans-serif" font-size="11" fill="#374151">9</text>
<text x="800.0" y="488" text-anchor="middle" font-family="Arial, sans-serif" font-size="11" fill="#374151">10</text>
<polyline points="72.0,241.4 436.0,155.7 800.0,70.0" fill="none" stroke="#08519c" stroke-width="2.5"/>
<circle cx="72.0" cy="241.4" r="4" fill="#08519c"/>
<circle cx="436.0" cy="155.7" r="4" fill="#08519c"/>
<circle cx="800.0" cy="70.0" r="4" fill="#08519c"/>
<line x1="824" y1="84" x2="838" y2="84" stroke="#08519c" stroke-width="2.5"/>
<text x="842" y="88" font-family="Arial, sans-serif" font-size="12" fill="#111827">Shared MILP full matrix</text>
<polyline points="72.0,308.1 436.0,251.0 800.0,193.8" fill="none" stroke="#d62728" stroke-width="2.5"/>
<circle cx="72.0" cy="308.1" r="4" fill="#d62728"/>
<circle cx="436.0" cy="251.0" r="4" fill="#d62728"/>
<circle cx="800.0" cy="193.8" r="4" fill="#d62728"/>
<line x1="824" y1="104" x2="838" y2="104" stroke="#d62728" stroke-width="2.5"/>
<text x="842" y="108" font-family="Arial, sans-serif" font-size="12" fill="#111827">DPA weakest token</text>
</svg>