<svg xmlns="http://www.w3.org/2000/svg" width="1160" height="540" viewBox="0 0 1160 540">
<rect width="100%" height="100%" fill="#ffffff"/>
<text x="580.0" y="28" text-anchor="middle" font-family="Arial, sans-serif" font-size="14" fill="#111827">Main validity budget curve</text>
<line x1="72" y1="70" x2="72" y2="470" stroke="#111827"/>
<line x1="72" y1="470" x2="800" y2="470" stroke="#111827"/>
<text x="580.0" y="522" text-anchor="middle" font-family="Arial, sans-serif" font-size="13" fill="#374151">Poisoned shard budget B</text>
<text x="18" y="270.0" transform="rotate(-90 18 270.0)" text-anchor="middle" font-family="Arial, sans-serif" font-size="13" fill="#374151">Certified fraction (%)</text>
<line x1="72" y1="470.0" x2="800" y2="470.0" stroke="#e5e7eb"/>
<text x="64" y="474.0" text-anchor="end" font-family="Arial, sans-serif" font-size="11" fill="#374151">0.0</text>
<line x1="72" y1="370.0" x2="800" y2="370.0" stroke="#e5e7eb"/>
<text x="64" y="374.0" text-anchor="end" font-family="Arial, sans-serif" font-size="11" fill="#374151">25.0</text>
<line x1="72" y1="270.0" x2="800" y2="270.0" stroke="#e5e7eb"/>
<text x="64" y="274.0" text-anchor="end" font-family="Arial, sans-serif" font-size="11" fill="#374151">50.0</text>
<line x1="72" y1="170.0" x2="800" y2="170.0" stroke="#e5e7eb"/>
<text x="64" y="174.0" text-anchor="end" font-family="Arial, sans-serif" font-size="11" fill="#374151">75.0</text>
<line x1="72" y1="70.0" x2="800" y2="70.0" stroke="#e5e7eb"/>
<text x="64" y="74.0" text-anchor="end" font-family="Arial, sans-serif" font-size="11" fill="#374151">100.0</text>
<text x="72.0" y="488" text-anchor="middle" font-family="Arial, sans-serif" font-size="11" fill="#374151">0</text>
<text x="254.0" y="488" text-anchor="middle" font-family="Arial, sans-serif" font-size="11" fill="#374151">5</text>
<text x="436.0" y="488" text-anchor="middle" font-family="Arial, sans-serif" font-size="11" fill="#374151">10</text>
<text x="618.0" y="488" text-anchor="middle" font-family="Arial, sans-serif" font-size="11" fill="#374151">15</text>
<text x="800.0" y="488" text-anchor="middle" font-family="Arial, sans-serif" font-size="11" fill="#374151">20</text>
<polyline points="72.0,70.0 108.4,74.9 144.8,114.4 181.2,207.0 217.6,334.2 254.0,415.7 290.4,457.7 326.8,470.0 363.2,470.0 399.6,470.0 436.0,470.0 472.4,470.0 508.8,470.0 545.2,470.0 581.6,470.0 618.0,470.0 654.4,470.0 690.8,470.0 727.2,470.0 763.6,470.0 800.0,470.0" fill="none" stroke="#2563eb" stroke-width="2.5"/>
<circle cx="72.0" cy="70.0" r="4" fill="#2563eb"/>
<circle cx="108.4" cy="74.9" r="4" fill="#2563eb"/>
<circle cx="144.8" cy="114.4" r="4" fill="#2563eb"/>
<circle cx="181.2" cy="207.0" r="4" fill="#2563eb"/>
<circle cx="217.6" cy="334.2" r="4" fill="#2563eb"/>
<circle cx="254.0" cy="415.7" r="4" fill="#2563eb"/>
<circle cx="290.4" cy="457.7" r="4" fill="#2563eb"/>
<circle cx="326.8" cy="470.0" r="4" fill="#2563eb"/>
<circle cx="363.2" cy="470.0" r="4" fill="#2563eb"/>
<circle cx="399.6" cy="470.0" r="4" fill="#2563eb"/>
<circle cx="436.0" cy="470.0" r="4" fill="#2563eb"/>
<circle cx="472.4" cy="470.0" r="4" fill="#2563eb"/>
<circle cx="508.8" cy="470.0" r="4" fill="#2563eb"/>
<circle cx="545.2" cy="470.0" r="4" fill="#2563eb"/>
<circle cx="581.6" cy="470.0" r="4" fill="#2563eb"/>
<circle cx="618.0" cy="470.0" r="4" fill="#2563eb"/>
<circle cx="654.4" cy="470.0" r="4" fill="#2563eb"/>
<circle cx="690.8" cy="470.0" r="4" fill="#2563eb"/>
<circle cx="727.2" cy="470.0" r="4" fill="#2563eb"/>
<circle cx="763.6" cy="470.0" r="4" fill="#2563eb"/>
<circle cx="800.0" cy="470.0" r="4" fill="#2563eb"/>
<rect x="824" y="78" width="12" height="12" fill="#2563eb"/>
<text x="842" y="88" font-family="Arial, sans-serif" font-size="12" fill="#111827">Shared MILP full sequence</text>
<polyline points="72.0,70.0 108.4,74.9 144.8,129.3 181.2,219.4 217.6,334.2 254.0,415.7 290.4,457.7 326.8,470.0 363.2,470.0 399.6,470.0 436.0,470.0 472.4,470.0 508.8,470.0 545.2,470.0 581.6,470.0 618.0,470.0 654.4,470.0 690.8,470.0 727.2,470.0 763.6,470.0 800.0,470.0" fill="none" stroke="#dc2626" stroke-width="2.5"/>
<circle cx="72.0" cy="70.0" r="4" fill="#dc2626"/>
<circle cx="108.4" cy="74.9" r="4" fill="#dc2626"/>
<circle cx="144.8" cy="129.3" r="4" fill="#dc2626"/>
<circle cx="181.2" cy="219.4" r="4" fill="#dc2626"/>
<circle cx="217.6" cy="334.2" r="4" fill="#dc2626"/>
<circle cx="254.0" cy="415.7" r="4" fill="#dc2626"/>
<circle cx="290.4" cy="457.7" r="4" fill="#dc2626"/>
<circle cx="326.8" cy="470.0" r="4" fill="#dc2626"/>
<circle cx="363.2" cy="470.0" r="4" fill="#dc2626"/>
<circle cx="399.6" cy="470.0" r="4" fill="#dc2626"/>
<circle cx="436.0" cy="470.0" r="4" fill="#dc2626"/>
<circle cx="472.4" cy="470.0" r="4" fill="#dc2626"/>
<circle cx="508.8" cy="470.0" r="4" fill="#dc2626"/>
<circle cx="545.2" cy="470.0" r="4" fill="#dc2626"/>
<circle cx="581.6" cy="470.0" r="4" fill="#dc2626"/>
<circle cx="618.0" cy="470.0" r="4" fill="#dc2626"/>
<circle cx="654.4" cy="470.0" r="4" fill="#dc2626"/>
<circle cx="690.8" cy="470.0" r="4" fill="#dc2626"/>
<circle cx="727.2" cy="470.0" r="4" fill="#dc2626"/>
<circle cx="763.6" cy="470.0" r="4" fill="#dc2626"/>
<circle cx="800.0" cy="470.0" r="4" fill="#dc2626"/>
<rect x="824" y="98" width="12" height="12" fill="#dc2626"/>
<text x="842" y="108" font-family="Arial, sans-serif" font-size="12" fill="#111827">TPA max-token sequence</text>
<polyline points="72.0,283.6 108.4,419.4 144.8,436.7 181.2,466.3 217.6,470.0 254.0,470.0 290.4,470.0 326.8,470.0 363.2,470.0 399.6,470.0 436.0,470.0 472.4,470.0 508.8,470.0 545.2,470.0 581.6,470.0 618.0,470.0 654.4,470.0 690.8,470.0 727.2,470.0 763.6,470.0 800.0,470.0" fill="none" stroke="#059669" stroke-width="2.5"/>
<circle cx="72.0" cy="283.6" r="4" fill="#059669"/>
<circle cx="108.4" cy="419.4" r="4" fill="#059669"/>
<circle cx="144.8" cy="436.7" r="4" fill="#059669"/>
<circle cx="181.2" cy="466.3" r="4" fill="#059669"/>
<circle cx="217.6" cy="470.0" r="4" fill="#059669"/>
<circle cx="254.0" cy="470.0" r="4" fill="#059669"/>
<circle cx="290.4" cy="470.0" r="4" fill="#059669"/>
<circle cx="326.8" cy="470.0" r="4" fill="#059669"/>
<circle cx="363.2" cy="470.0" r="4" fill="#059669"/>
<circle cx="399.6" cy="470.0" r="4" fill="#059669"/>
<circle cx="436.0" cy="470.0" r="4" fill="#059669"/>
<circle cx="472.4" cy="470.0" r="4" fill="#059669"/>
<circle cx="508.8" cy="470.0" r="4" fill="#059669"/>
<circle cx="545.2" cy="470.0" r="4" fill="#059669"/>
<circle cx="581.6" cy="470.0" r="4" fill="#059669"/>
<circle cx="618.0" cy="470.0" r="4" fill="#059669"/>
<circle cx="654.4" cy="470.0" r="4" fill="#059669"/>
<circle cx="690.8" cy="470.0" r="4" fill="#059669"/>
<circle cx="727.2" cy="470.0" r="4" fill="#059669"/>
<circle cx="763.6" cy="470.0" r="4" fill="#059669"/>
<circle cx="800.0" cy="470.0" r="4" fill="#059669"/>
<rect x="824" y="118" width="12" height="12" fill="#059669"/>
<text x="842" y="128" font-family="Arial, sans-serif" font-size="12" fill="#111827">DPA weakest harmful token</text>
</svg>