<svg xmlns="http://www.w3.org/2000/svg" width="1160" height="540" viewBox="0 0 1160 540">
<rect width="100%" height="100%" fill="#ffffff"/>
<text x="580.0" y="26" text-anchor="middle" font-family="Arial, sans-serif" font-size="14" fill="#111827">Stability diagnostic references</text>
<line x1="72" y1="54" x2="72" y2="470" stroke="#111827"/>
<line x1="72" y1="470" x2="800" y2="470" stroke="#111827"/>
<text x="580.0" y="522" text-anchor="middle" font-family="Arial, sans-serif" font-size="13" fill="#374151">sequence length L</text>
<text x="18" y="262.0" transform="rotate(-90 18 262.0)" text-anchor="middle" font-family="Arial, sans-serif" font-size="13" fill="#374151">Mean certified budget B*</text>
<line x1="72" y1="470.0" x2="800" y2="470.0" stroke="#e5e7eb"/>
<text x="64" y="474.0" text-anchor="end" font-family="Arial, sans-serif" font-size="11" fill="#374151">0.0</text>
<line x1="72" y1="366.0" x2="800" y2="366.0" stroke="#e5e7eb"/>
<text x="64" y="370.0" text-anchor="end" font-family="Arial, sans-serif" font-size="11" fill="#374151">11.3</text>
<line x1="72" y1="262.0" x2="800" y2="262.0" stroke="#e5e7eb"/>
<text x="64" y="266.0" text-anchor="end" font-family="Arial, sans-serif" font-size="11" fill="#374151">22.6</text>
<line x1="72" y1="158.0" x2="800" y2="158.0" stroke="#e5e7eb"/>
<text x="64" y="162.0" text-anchor="end" font-family="Arial, sans-serif" font-size="11" fill="#374151">33.9</text>
<line x1="72" y1="54.0" x2="800" y2="54.0" stroke="#e5e7eb"/>
<text x="64" y="58.0" text-anchor="end" font-family="Arial, sans-serif" font-size="11" fill="#374151">45.2</text>
<text x="72.0" y="488" text-anchor="middle" font-family="Arial, sans-serif" font-size="11" fill="#374151">2</text>
<text x="254.0" y="488" text-anchor="middle" font-family="Arial, sans-serif" font-size="11" fill="#374151">2.8</text>
<text x="436.0" y="488" text-anchor="middle" font-family="Arial, sans-serif" font-size="11" fill="#374151">3.5</text>
<text x="618.0" y="488" text-anchor="middle" font-family="Arial, sans-serif" font-size="11" fill="#374151">4.2</text>
<text x="800.0" y="488" text-anchor="middle" font-family="Arial, sans-serif" font-size="11" fill="#374151">5</text>
<polyline points="72.0,438.9 314.7,437.8 557.3,437.8 800.0,437.8" fill="none" stroke="#2563eb" stroke-width="2.5"/>
<circle cx="72.0" cy="438.9" r="4" fill="#2563eb"/>
<circle cx="314.7" cy="437.8" r="4" fill="#2563eb"/>
<circle cx="557.3" cy="437.8" r="4" fill="#2563eb"/>
<circle cx="800.0" cy="437.8" r="4" fill="#2563eb"/>
<rect x="824" y="62" width="12" height="12" fill="#2563eb"/>
<text x="842" y="72" font-family="Arial, sans-serif" font-size="12" fill="#111827">Joint row-column shared MILP</text>
<polyline points="72.0,302.2 314.7,219.7 557.3,138.6 800.0,54.0" fill="none" stroke="#dc2626" stroke-width="2.5"/>
<circle cx="72.0" cy="302.2" r="4" fill="#dc2626"/>
<circle cx="314.7" cy="219.7" r="4" fill="#dc2626"/>
<circle cx="557.3" cy="138.6" r="4" fill="#dc2626"/>
<circle cx="800.0" cy="54.0" r="4" fill="#dc2626"/>
<rect x="824" y="82" width="12" height="12" fill="#dc2626"/>
<text x="842" y="92" font-family="Arial, sans-serif" font-size="12" fill="#111827">Independent composition diagnostic</text>
<polyline points="72.0,441.2 314.7,443.0 557.3,442.9 800.0,444.2" fill="none" stroke="#059669" stroke-width="2.5"/>
<circle cx="72.0" cy="441.2" r="4" fill="#059669"/>
<circle cx="314.7" cy="443.0" r="4" fill="#059669"/>
<circle cx="557.3" cy="442.9" r="4" fill="#059669"/>
<circle cx="800.0" cy="444.2" r="4" fill="#059669"/>
<rect x="824" y="102" width="12" height="12" fill="#059669"/>
<text x="842" y="112" font-family="Arial, sans-serif" font-size="12" fill="#111827">DPA weakest-token stability</text>
</svg>