<svg xmlns="http://www.w3.org/2000/svg" width="1160" height="540" viewBox="0 0 1160 540">
<rect width="100%" height="100%" fill="#ffffff"/>
<text x="580.0" y="28" text-anchor="middle" font-family="Arial, sans-serif" font-size="14" fill="#111827">validity_demo baseline vs shard-aware MILP</text>
<line x1="72" y1="70" x2="72" y2="470" stroke="#111827"/>
<line x1="72" y1="470" x2="800" y2="470" stroke="#111827"/>
<text x="580.0" y="522" text-anchor="middle" font-family="Arial, sans-serif" font-size="13" fill="#374151">sequence length L</text>
<text x="18" y="270.0" transform="rotate(-90 18 270.0)" text-anchor="middle" font-family="Arial, sans-serif" font-size="13" fill="#374151">Mean certified budget B*</text>
<line x1="72" y1="470.0" x2="800" y2="470.0" stroke="#e5e7eb"/>
<text x="64" y="474.0" text-anchor="end" font-family="Arial, sans-serif" font-size="11" fill="#374151">0.0</text>
<line x1="72" y1="370.0" x2="800" y2="370.0" stroke="#e5e7eb"/>
<text x="64" y="374.0" text-anchor="end" font-family="Arial, sans-serif" font-size="11" fill="#374151">2.8</text>
<line x1="72" y1="270.0" x2="800" y2="270.0" stroke="#e5e7eb"/>
<text x="64" y="274.0" text-anchor="end" font-family="Arial, sans-serif" font-size="11" fill="#374151">5.5</text>
<line x1="72" y1="170.0" x2="800" y2="170.0" stroke="#e5e7eb"/>
<text x="64" y="174.0" text-anchor="end" font-family="Arial, sans-serif" font-size="11" fill="#374151">8.2</text>
<line x1="72" y1="70.0" x2="800" y2="70.0" stroke="#e5e7eb"/>
<text x="64" y="74.0" text-anchor="end" font-family="Arial, sans-serif" font-size="11" fill="#374151">11.0</text>
<text x="72.0" y="488" text-anchor="middle" font-family="Arial, sans-serif" font-size="11" fill="#374151">2</text>
<text x="254.0" y="488" text-anchor="middle" font-family="Arial, sans-serif" font-size="11" fill="#374151">2.8</text>
<text x="436.0" y="488" text-anchor="middle" font-family="Arial, sans-serif" font-size="11" fill="#374151">3.5</text>
<text x="618.0" y="488" text-anchor="middle" font-family="Arial, sans-serif" font-size="11" fill="#374151">4.2</text>
<text x="800.0" y="488" text-anchor="middle" font-family="Arial, sans-serif" font-size="11" fill="#374151">5</text>
<polyline points="72.0,397.3 314.7,397.3 557.3,360.9 800.0,360.9" fill="none" stroke="#2563eb" stroke-width="2.5"/>
<circle cx="72.0" cy="397.3" r="4" fill="#2563eb"/>
<circle cx="314.7" cy="397.3" r="4" fill="#2563eb"/>
<circle cx="557.3" cy="360.9" r="4" fill="#2563eb"/>
<circle cx="800.0" cy="360.9" r="4" fill="#2563eb"/>
<rect x="824" y="78" width="12" height="12" fill="#2563eb"/>
<text x="842" y="88" font-family="Arial, sans-serif" font-size="12" fill="#111827">TPA sequence baseline</text>
<polyline points="72.0,360.9 314.7,288.2 557.3,179.1 800.0,70.0" fill="none" stroke="#dc2626" stroke-width="2.5"/>
<circle cx="72.0" cy="360.9" r="4" fill="#dc2626"/>
<circle cx="314.7" cy="288.2" r="4" fill="#dc2626"/>
<circle cx="557.3" cy="179.1" r="4" fill="#dc2626"/>
<circle cx="800.0" cy="70.0" r="4" fill="#dc2626"/>
<rect x="824" y="98" width="12" height="12" fill="#dc2626"/>
<text x="842" y="108" font-family="Arial, sans-serif" font-size="12" fill="#111827">Row-only shared MILP</text>
<polyline points="72.0,360.9 314.7,288.2 557.3,179.1 800.0,70.0" fill="none" stroke="#059669" stroke-width="2.5"/>
<circle cx="72.0" cy="360.9" r="4" fill="#059669"/>
<circle cx="314.7" cy="288.2" r="4" fill="#059669"/>
<circle cx="557.3" cy="179.1" r="4" fill="#059669"/>
<circle cx="800.0" cy="70.0" r="4" fill="#059669"/>
<rect x="824" y="118" width="12" height="12" fill="#059669"/>
<text x="842" y="128" font-family="Arial, sans-serif" font-size="12" fill="#111827">Joint row-column shared MILP</text>
<polyline points="72.0,433.6 314.7,433.6 557.3,433.6 800.0,433.6" fill="none" stroke="#7c3aed" stroke-width="2.5"/>
<circle cx="72.0" cy="433.6" r="4" fill="#7c3aed"/>
<circle cx="314.7" cy="433.6" r="4" fill="#7c3aed"/>
<circle cx="557.3" cy="433.6" r="4" fill="#7c3aed"/>
<circle cx="800.0" cy="433.6" r="4" fill="#7c3aed"/>
<rect x="824" y="138" width="12" height="12" fill="#7c3aed"/>
<text x="842" y="148" font-family="Arial, sans-serif" font-size="12" fill="#111827">DPA weakest harmful-token diagnostic</text>
</svg>