<svg xmlns="http://www.w3.org/2000/svg" width="1160" height="540" viewBox="0 0 1160 540">
<rect width="100%" height="100%" fill="#ffffff"/>
<text x="580.0" y="28" text-anchor="middle" font-family="Arial, sans-serif" font-size="14" fill="#111827">Synthetic validity stress test: baseline vs shard-aware MILP</text>
<line x1="72" y1="70" x2="72" y2="470" stroke="#111827"/>
<line x1="72" y1="470" x2="800" y2="470" stroke="#111827"/>
<text x="580.0" y="522" text-anchor="middle" font-family="Arial, sans-serif" font-size="13" fill="#374151">sequence length L</text>
<text x="18" y="270.0" transform="rotate(-90 18 270.0)" text-anchor="middle" font-family="Arial, sans-serif" font-size="13" fill="#374151">Mean certified budget B*</text>
<line x1="72" y1="470.0" x2="800" y2="470.0" stroke="#e5e7eb"/>
<text x="64" y="474.0" text-anchor="end" font-family="Arial, sans-serif" font-size="11" fill="#374151">0.0</text>
<line x1="72" y1="370.0" x2="800" y2="370.0" stroke="#e5e7eb"/>
<text x="64" y="374.0" text-anchor="end" font-family="Arial, sans-serif" font-size="11" fill="#374151">14.2</text>
<line x1="72" y1="270.0" x2="800" y2="270.0" stroke="#e5e7eb"/>
<text x="64" y="274.0" text-anchor="end" font-family="Arial, sans-serif" font-size="11" fill="#374151">28.5</text>
<line x1="72" y1="170.0" x2="800" y2="170.0" stroke="#e5e7eb"/>
<text x="64" y="174.0" text-anchor="end" font-family="Arial, sans-serif" font-size="11" fill="#374151">42.8</text>
<line x1="72" y1="70.0" x2="800" y2="70.0" stroke="#e5e7eb"/>
<text x="64" y="74.0" text-anchor="end" font-family="Arial, sans-serif" font-size="11" fill="#374151">57.0</text>
<text x="72.0" y="488" text-anchor="middle" font-family="Arial, sans-serif" font-size="11" fill="#374151">3</text>
<text x="254.0" y="488" text-anchor="middle" font-family="Arial, sans-serif" font-size="11" fill="#374151">9</text>
<text x="436.0" y="488" text-anchor="middle" font-family="Arial, sans-serif" font-size="11" fill="#374151">15</text>
<text x="618.0" y="488" text-anchor="middle" font-family="Arial, sans-serif" font-size="11" fill="#374151">21</text>
<text x="800.0" y="488" text-anchor="middle" font-family="Arial, sans-serif" font-size="11" fill="#374151">27</text>
<polyline points="72.0,448.9 254.0,434.9 800.0,434.9" fill="none" stroke="#d62728" stroke-width="2.5" stroke-dasharray="2 7" stroke-linecap="round"/>
<circle cx="72.0" cy="448.9" r="4" fill="#d62728"/>
<circle cx="254.0" cy="434.9" r="4" fill="#d62728"/>
<circle cx="800.0" cy="434.9" r="4" fill="#d62728"/>
<line x1="824" y1="84" x2="838" y2="84" stroke="#d62728" stroke-width="2.5" stroke-dasharray="2 7" stroke-linecap="round"/>
<text x="842" y="88" font-family="Arial, sans-serif" font-size="12" fill="#111827">Plain DPA max-token phrase blocker</text>
<polyline points="72.0,441.9 254.0,420.9 800.0,413.9" fill="none" stroke="#2ca02c" stroke-width="2.5"/>
<circle cx="72.0" cy="441.9" r="4" fill="#2ca02c"/>
<circle cx="254.0" cy="420.9" r="4" fill="#2ca02c"/>
<circle cx="800.0" cy="413.9" r="4" fill="#2ca02c"/>
<line x1="824" y1="104" x2="838" y2="104" stroke="#2ca02c" stroke-width="2.5"/>
<text x="842" y="108" font-family="Arial, sans-serif" font-size="12" fill="#111827">TPA max-token phrase blocker</text>
<polyline points="72.0,434.9 254.0,322.6 800.0,70.0" fill="none" stroke="#1f77b4" stroke-width="2.5"/>
<circle cx="72.0" cy="434.9" r="4" fill="#1f77b4"/>
<circle cx="254.0" cy="322.6" r="4" fill="#1f77b4"/>
<circle cx="800.0" cy="70.0" r="4" fill="#1f77b4"/>
<line x1="824" y1="124" x2="838" y2="124" stroke="#1f77b4" stroke-width="2.5"/>
<text x="842" y="128" font-family="Arial, sans-serif" font-size="12" fill="#111827">Shared shard-aware MILP full sequence</text>
</svg>