<svg xmlns="http://www.w3.org/2000/svg" width="490" height="496" viewBox="0 0 490 496">
<rect width="100%" height="100%" fill="#ffffff"/>
<text x="245.0" y="26" text-anchor="middle" font-family="Arial, sans-serif" font-size="13" fill="#111827">Structured stability poison budget</text>
<text x="245.0" y="43" text-anchor="middle" font-family="Arial, sans-serif" font-size="13" fill="#111827">K=12, N=6, L=6, T=10, delta_stab=0.2, delta_val=0.2,</text>
<text x="245.0" y="60" text-anchor="middle" font-family="Arial, sans-serif" font-size="13" fill="#111827">target_bias=0.3, influence=dense,</text>
<text x="245.0" y="77" text-anchor="middle" font-family="Arial, sans-serif" font-size="13" fill="#111827">stability_competitor_mode=all, seed=0</text>
<text x="232.0" y="484" text-anchor="middle" font-family="Arial, sans-serif" font-size="12" fill="#374151">affected tokens per prompt</text>
<text x="16" y="278.0" transform="rotate(-90 16 278.0)" text-anchor="middle" font-family="Arial, sans-serif" font-size="12" fill="#374151">affected prompts</text>
<text x="97.0" y="106" text-anchor="middle" font-family="Arial, sans-serif" font-size="11" fill="#374151">1</text>
<text x="151.0" y="106" text-anchor="middle" font-family="Arial, sans-serif" font-size="11" fill="#374151">2</text>
<text x="205.0" y="106" text-anchor="middle" font-family="Arial, sans-serif" font-size="11" fill="#374151">3</text>
<text x="259.0" y="106" text-anchor="middle" font-family="Arial, sans-serif" font-size="11" fill="#374151">4</text>
<text x="313.0" y="106" text-anchor="middle" font-family="Arial, sans-serif" font-size="11" fill="#374151">5</text>
<text x="367.0" y="106" text-anchor="middle" font-family="Arial, sans-serif" font-size="11" fill="#374151">6</text>
<text x="58" y="147.0" text-anchor="end" font-family="Arial, sans-serif" font-size="11" fill="#374151">1</text>
<rect x="70" y="116" width="54" height="54" fill="#2563eb" stroke="#ffffff" stroke-width="2"/>
<text x="97.0" y="148.0" text-anchor="middle" font-family="Arial, sans-serif" font-size="13" fill="#ffffff">3</text>
<rect x="124" y="116" width="54" height="54" fill="#2563eb" stroke="#ffffff" stroke-width="2"/>
<text x="151.0" y="148.0" text-anchor="middle" font-family="Arial, sans-serif" font-size="13" fill="#ffffff">3</text>
<rect x="178" y="116" width="54" height="54" fill="#14b8a6" stroke="#ffffff" stroke-width="2"/>
<text x="205.0" y="148.0" text-anchor="middle" font-family="Arial, sans-serif" font-size="13" fill="#ffffff">4</text>
<rect x="232" y="116" width="54" height="54" fill="#14b8a6" stroke="#ffffff" stroke-width="2"/>
<text x="259.0" y="148.0" text-anchor="middle" font-family="Arial, sans-serif" font-size="13" fill="#ffffff">4</text>
<rect x="286" y="116" width="54" height="54" fill="#eab308" stroke="#ffffff" stroke-width="2"/>
<text x="313.0" y="148.0" text-anchor="middle" font-family="Arial, sans-serif" font-size="13" fill="#ffffff">5</text>
<rect x="340" y="116" width="54" height="54" fill="#eab308" stroke="#ffffff" stroke-width="2"/>
<text x="367.0" y="148.0" text-anchor="middle" font-family="Arial, sans-serif" font-size="13" fill="#ffffff">5</text>
<text x="58" y="201.0" text-anchor="end" font-family="Arial, sans-serif" font-size="11" fill="#374151">2</text>
<rect x="70" y="170" width="54" height="54" fill="#2563eb" stroke="#ffffff" stroke-width="2"/>
<text x="97.0" y="202.0" text-anchor="middle" font-family="Arial, sans-serif" font-size="13" fill="#ffffff">3</text>
<rect x="124" y="170" width="54" height="54" fill="#14b8a6" stroke="#ffffff" stroke-width="2"/>
<text x="151.0" y="202.0" text-anchor="middle" font-family="Arial, sans-serif" font-size="13" fill="#ffffff">4</text>
<rect x="178" y="170" width="54" height="54" fill="#14b8a6" stroke="#ffffff" stroke-width="2"/>
<text x="205.0" y="202.0" text-anchor="middle" font-family="Arial, sans-serif" font-size="13" fill="#ffffff">4</text>
<rect x="232" y="170" width="54" height="54" fill="#14b8a6" stroke="#ffffff" stroke-width="2"/>
<text x="259.0" y="202.0" text-anchor="middle" font-family="Arial, sans-serif" font-size="13" fill="#ffffff">4</text>
<rect x="286" y="170" width="54" height="54" fill="#eab308" stroke="#ffffff" stroke-width="2"/>
<text x="313.0" y="202.0" text-anchor="middle" font-family="Arial, sans-serif" font-size="13" fill="#ffffff">5</text>
<rect x="340" y="170" width="54" height="54" fill="#eab308" stroke="#ffffff" stroke-width="2"/>
<text x="367.0" y="202.0" text-anchor="middle" font-family="Arial, sans-serif" font-size="13" fill="#ffffff">5</text>
<text x="58" y="255.0" text-anchor="end" font-family="Arial, sans-serif" font-size="11" fill="#374151">3</text>
<rect x="70" y="224" width="54" height="54" fill="#2563eb" stroke="#ffffff" stroke-width="2"/>
<text x="97.0" y="256.0" text-anchor="middle" font-family="Arial, sans-serif" font-size="13" fill="#ffffff">3</text>
<rect x="124" y="224" width="54" height="54" fill="#14b8a6" stroke="#ffffff" stroke-width="2"/>
<text x="151.0" y="256.0" text-anchor="middle" font-family="Arial, sans-serif" font-size="13" fill="#ffffff">4</text>
<rect x="178" y="224" width="54" height="54" fill="#14b8a6" stroke="#ffffff" stroke-width="2"/>
<text x="205.0" y="256.0" text-anchor="middle" font-family="Arial, sans-serif" font-size="13" fill="#ffffff">4</text>
<rect x="232" y="224" width="54" height="54" fill="#eab308" stroke="#ffffff" stroke-width="2"/>
<text x="259.0" y="256.0" text-anchor="middle" font-family="Arial, sans-serif" font-size="13" fill="#ffffff">5</text>
<rect x="286" y="224" width="54" height="54" fill="#eab308" stroke="#ffffff" stroke-width="2"/>
<text x="313.0" y="256.0" text-anchor="middle" font-family="Arial, sans-serif" font-size="13" fill="#ffffff">5</text>
<rect x="340" y="224" width="54" height="54" fill="#eab308" stroke="#ffffff" stroke-width="2"/>
<text x="367.0" y="256.0" text-anchor="middle" font-family="Arial, sans-serif" font-size="13" fill="#ffffff">5</text>
<text x="58" y="309.0" text-anchor="end" font-family="Arial, sans-serif" font-size="11" fill="#374151">4</text>
<rect x="70" y="278" width="54" height="54" fill="#14b8a6" stroke="#ffffff" stroke-width="2"/>
<text x="97.0" y="310.0" text-anchor="middle" font-family="Arial, sans-serif" font-size="13" fill="#ffffff">4</text>
<rect x="124" y="278" width="54" height="54" fill="#14b8a6" stroke="#ffffff" stroke-width="2"/>
<text x="151.0" y="310.0" text-anchor="middle" font-family="Arial, sans-serif" font-size="13" fill="#ffffff">4</text>
<rect x="178" y="278" width="54" height="54" fill="#eab308" stroke="#ffffff" stroke-width="2"/>
<text x="205.0" y="310.0" text-anchor="middle" font-family="Arial, sans-serif" font-size="13" fill="#ffffff">5</text>
<rect x="232" y="278" width="54" height="54" fill="#eab308" stroke="#ffffff" stroke-width="2"/>
<text x="259.0" y="310.0" text-anchor="middle" font-family="Arial, sans-serif" font-size="13" fill="#ffffff">5</text>
<rect x="286" y="278" width="54" height="54" fill="#eab308" stroke="#ffffff" stroke-width="2"/>
<text x="313.0" y="310.0" text-anchor="middle" font-family="Arial, sans-serif" font-size="13" fill="#ffffff">5</text>
<rect x="340" y="278" width="54" height="54" fill="#eab308" stroke="#ffffff" stroke-width="2"/>
<text x="367.0" y="310.0" text-anchor="middle" font-family="Arial, sans-serif" font-size="13" fill="#ffffff">5</text>
<text x="58" y="363.0" text-anchor="end" font-family="Arial, sans-serif" font-size="11" fill="#374151">5</text>
<rect x="70" y="332" width="54" height="54" fill="#14b8a6" stroke="#ffffff" stroke-width="2"/>
<text x="97.0" y="364.0" text-anchor="middle" font-family="Arial, sans-serif" font-size="13" fill="#ffffff">4</text>
<rect x="124" y="332" width="54" height="54" fill="#14b8a6" stroke="#ffffff" stroke-width="2"/>
<text x="151.0" y="364.0" text-anchor="middle" font-family="Arial, sans-serif" font-size="13" fill="#ffffff">4</text>
<rect x="178" y="332" width="54" height="54" fill="#eab308" stroke="#ffffff" stroke-width="2"/>
<text x="205.0" y="364.0" text-anchor="middle" font-family="Arial, sans-serif" font-size="13" fill="#ffffff">5</text>
<rect x="232" y="332" width="54" height="54" fill="#eab308" stroke="#ffffff" stroke-width="2"/>
<text x="259.0" y="364.0" text-anchor="middle" font-family="Arial, sans-serif" font-size="13" fill="#ffffff">5</text>
<rect x="286" y="332" width="54" height="54" fill="#eab308" stroke="#ffffff" stroke-width="2"/>
<text x="313.0" y="364.0" text-anchor="middle" font-family="Arial, sans-serif" font-size="13" fill="#ffffff">5</text>
<rect x="340" y="332" width="54" height="54" fill="#eab308" stroke="#ffffff" stroke-width="2"/>
<text x="367.0" y="364.0" text-anchor="middle" font-family="Arial, sans-serif" font-size="13" fill="#ffffff">5</text>
<text x="58" y="417.0" text-anchor="end" font-family="Arial, sans-serif" font-size="11" fill="#374151">6</text>
<rect x="70" y="386" width="54" height="54" fill="#14b8a6" stroke="#ffffff" stroke-width="2"/>
<text x="97.0" y="418.0" text-anchor="middle" font-family="Arial, sans-serif" font-size="13" fill="#ffffff">4</text>
<rect x="124" y="386" width="54" height="54" fill="#eab308" stroke="#ffffff" stroke-width="2"/>
<text x="151.0" y="418.0" text-anchor="middle" font-family="Arial, sans-serif" font-size="13" fill="#ffffff">5</text>
<rect x="178" y="386" width="54" height="54" fill="#eab308" stroke="#ffffff" stroke-width="2"/>
<text x="205.0" y="418.0" text-anchor="middle" font-family="Arial, sans-serif" font-size="13" fill="#ffffff">5</text>
<rect x="232" y="386" width="54" height="54" fill="#eab308" stroke="#ffffff" stroke-width="2"/>
<text x="259.0" y="418.0" text-anchor="middle" font-family="Arial, sans-serif" font-size="13" fill="#ffffff">5</text>
<rect x="286" y="386" width="54" height="54" fill="#eab308" stroke="#ffffff" stroke-width="2"/>
<text x="313.0" y="418.0" text-anchor="middle" font-family="Arial, sans-serif" font-size="13" fill="#ffffff">5</text>
<rect x="340" y="386" width="54" height="54" fill="#eab308" stroke="#ffffff" stroke-width="2"/>
<text x="367.0" y="418.0" text-anchor="middle" font-family="Arial, sans-serif" font-size="13" fill="#ffffff">5</text>
<rect x="422" y="426.5" width="14" height="14.3" fill="#2563eb"/>
<rect x="422" y="413.0" width="14" height="14.3" fill="#246ae5"/>
<rect x="422" y="399.5" width="14" height="14.3" fill="#2271e0"/>
<rect x="422" y="386.0" width="14" height="14.3" fill="#2178da"/>
<rect x="422" y="372.5" width="14" height="14.3" fill="#1f7fd4"/>
<rect x="422" y="359.0" width="14" height="14.3" fill="#1e86ce"/>
<rect x="422" y="345.5" width="14" height="14.3" fill="#1c8ec8"/>
<rect x="422" y="332.0" width="14" height="14.3" fill="#1b95c3"/>
<rect x="422" y="318.5" width="14" height="14.3" fill="#1a9cbd"/>
<rect x="422" y="305.0" width="14" height="14.3" fill="#18a3b7"/>
<rect x="422" y="291.5" width="14" height="14.3" fill="#17aab2"/>
<rect x="422" y="278.0" width="14" height="14.3" fill="#15b1ac"/>
<rect x="422" y="264.5" width="14" height="14.3" fill="#14b8a6"/>
<rect x="422" y="251.0" width="14" height="14.3" fill="#26b899"/>
<rect x="422" y="237.5" width="14" height="14.3" fill="#38b78c"/>
<rect x="422" y="224.0" width="14" height="14.3" fill="#4ab77e"/>
<rect x="422" y="210.5" width="14" height="14.3" fill="#5bb671"/>
<rect x="422" y="197.0" width="14" height="14.3" fill="#6db664"/>
<rect x="422" y="183.5" width="14" height="14.3" fill="#7fb657"/>
<rect x="422" y="170.0" width="14" height="14.3" fill="#91b54a"/>
<rect x="422" y="156.5" width="14" height="14.3" fill="#a3b53d"/>
<rect x="422" y="143.0" width="14" height="14.3" fill="#b4b430"/>
<rect x="422" y="129.5" width="14" height="14.3" fill="#c6b422"/>
<rect x="422" y="116.0" width="14" height="14.3" fill="#d8b315"/>
<text x="442" y="120" font-family="Arial, sans-serif" font-size="10" fill="#374151">5</text>
<text x="442" y="440.0" font-family="Arial, sans-serif" font-size="10" fill="#374151">3</text>
<text x="480" y="278.0" transform="rotate(-90 480 278.0)" text-anchor="middle" font-family="Arial, sans-serif" font-size="11" fill="#374151">poison budget B*</text>
</svg>