<svg xmlns="http://www.w3.org/2000/svg" width="1160" height="558" viewBox="0 0 1160 558">
<rect width="100%" height="100%" fill="#ffffff"/>
<text x="580.0" y="28" text-anchor="middle" font-family="Arial, sans-serif" font-size="14" fill="#111827">Row-column validity B*(q)</text>
<text x="580.0" y="46" text-anchor="middle" font-family="Arial, sans-serif" font-size="14" fill="#111827">K=12, N=6, L=6, T=10, delta_stab=0.2, delta_val=0.2, target_bias=0.3, influence=dense, stability_competitor_mode=all, seed=0</text>
<line x1="72" y1="88" x2="72" y2="488" stroke="#111827"/>
<line x1="72" y1="488" x2="800" y2="488" stroke="#111827"/>
<text x="580.0" y="540" text-anchor="middle" font-family="Arial, sans-serif" font-size="13" fill="#374151">q rows compromised</text>
<text x="18" y="288.0" transform="rotate(-90 18 288.0)" text-anchor="middle" font-family="Arial, sans-serif" font-size="13" fill="#374151">Poison budget B*</text>
<line x1="72" y1="488.0" x2="800" y2="488.0" stroke="#e5e7eb"/>
<text x="64" y="492.0" text-anchor="end" font-family="Arial, sans-serif" font-size="11" fill="#374151">0.0</text>
<line x1="72" y1="388.0" x2="800" y2="388.0" stroke="#e5e7eb"/>
<text x="64" y="392.0" text-anchor="end" font-family="Arial, sans-serif" font-size="11" fill="#374151">1.2</text>
<line x1="72" y1="288.0" x2="800" y2="288.0" stroke="#e5e7eb"/>
<text x="64" y="292.0" text-anchor="end" font-family="Arial, sans-serif" font-size="11" fill="#374151">2.5</text>
<line x1="72" y1="188.0" x2="800" y2="188.0" stroke="#e5e7eb"/>
<text x="64" y="192.0" text-anchor="end" font-family="Arial, sans-serif" font-size="11" fill="#374151">3.8</text>
<line x1="72" y1="88.0" x2="800" y2="88.0" stroke="#e5e7eb"/>
<text x="64" y="92.0" text-anchor="end" font-family="Arial, sans-serif" font-size="11" fill="#374151">5.0</text>
<text x="72.0" y="506" text-anchor="middle" font-family="Arial, sans-serif" font-size="11" fill="#374151">1</text>
<text x="254.0" y="506" text-anchor="middle" font-family="Arial, sans-serif" font-size="11" fill="#374151">2.2</text>
<text x="436.0" y="506" text-anchor="middle" font-family="Arial, sans-serif" font-size="11" fill="#374151">3.5</text>
<text x="618.0" y="506" text-anchor="middle" font-family="Arial, sans-serif" font-size="11" fill="#374151">4.8</text>
<text x="800.0" y="506" text-anchor="middle" font-family="Arial, sans-serif" font-size="11" fill="#374151">6</text>
<polyline points="72.0,328.0 217.6,248.0 363.2,248.0 508.8,168.0 654.4,88.0 800.0,88.0" fill="none" stroke="#2563eb" stroke-width="2.5"/>
<circle cx="72.0" cy="328.0" r="4" fill="#2563eb"/>
<circle cx="217.6" cy="248.0" r="4" fill="#2563eb"/>
<circle cx="363.2" cy="248.0" r="4" fill="#2563eb"/>
<circle cx="508.8" cy="168.0" r="4" fill="#2563eb"/>
<circle cx="654.4" cy="88.0" r="4" fill="#2563eb"/>
<circle cx="800.0" cy="88.0" r="4" fill="#2563eb"/>
<rect x="824" y="96" width="12" height="12" fill="#2563eb"/>
<text x="842" y="106" font-family="Arial, sans-serif" font-size="12" fill="#111827">shared MILP</text>
</svg>